<?xml version="1.0" standalone="no"?><!DOCTYPE svg PUBLIC "-//W3C//DTD SVG 1.1//EN" "http://www.w3.org/Graphics/SVG/1.1/DTD/svg11.dtd"><svg t="1615116870919" class="icon" viewBox="0 0 1024 1024" version="1.1" xmlns="http://www.w3.org/2000/svg" p-id="3262" xmlns:xlink="http://www.w3.org/1999/xlink" width="200" height="200"><defs><style type="text/css"></style></defs><path d="M669.568 430.4s-25.152 15.68-65.408 4.352c-25.536-7.168-57.152-43.264-92.416-43.264-36.672 0-68.032 35.008-92.352 42.56-35.84 11.072-56.448-3.648-56.448-3.648-16.128 0-26.816 10.688-26.816 26.88 0 16.064 10.688 26.752 26.816 26.752 0 0 24.32 15.936 58.944 5.12 26.176-8.256 58.176-43.968 89.856-43.968 30.08 0 61.888 36.608 89.024 44.352 39.36 11.072 68.8-5.568 68.8-5.568 16.064 0 26.816-10.688 26.816-26.752 0-16.128-10.752-26.816-26.816-26.816z m0 140.032s-25.152 15.68-65.408 4.48c-25.536-7.168-57.152-43.264-92.416-43.264-36.672 0-68.032 34.88-92.352 42.432-35.84 11.2-56.448-3.648-56.448-3.648-16.128 0-26.816 10.816-26.816 26.88s10.688 26.88 26.816 26.88c0 0 24.32 15.936 58.944 5.12 26.176-8.256 58.176-44.096 89.856-44.096 30.08 0 61.888 36.8 89.024 44.352 39.36 11.2 68.8-5.44 68.8-5.44 16.064 0 26.816-10.816 26.816-26.88 0-16-10.752-26.816-26.816-26.816zM467.136 790.208c-7.04-7.104-21.312-2.304-21.312 9.472v207.04c0 9.472 11.84 16.576 21.312 9.472l103.936-95.872a23.04 23.04 0 0 0 0-33.152l-103.936-96.96z" fill="#ffffff" p-id="3263"></path><path d="M511.872 891.136a377.856 377.856 0 0 1-379.008-379.2c0-147.904 84.544-274.24 206.72-336.832 0 0 14.848-8.512 9.472-29.312-5.376-20.8-21.568-13.952-21.568-13.952A421.44 421.44 0 0 0 89.536 512a419.904 419.904 0 0 0 123.136 299.264A420.096 420.096 0 0 0 511.808 934.4c13.376-0.128 26.56-1.024 39.616-2.368l-11.84-42.24c-9.152 0.64-18.368 1.344-27.712 1.344z m44.992-657.344c7.04 7.104 21.312 2.304 21.312-9.472V17.28c0-9.472-11.84-16.576-21.312-9.472L452.928 103.68a23.04 23.04 0 0 0 0 33.152l103.936 96.96z" fill="#ffffff" p-id="3264"></path><path d="M512.128 132.864a377.856 377.856 0 0 1 379.008 379.2c0 147.904-84.544 274.24-206.72 336.832 0 0-14.848 8.512-9.472 29.312 5.376 20.8 21.568 13.952 21.568 13.952a422.848 422.848 0 0 0 114.368-81.216A422.144 422.144 0 0 0 934.464 512a420.032 420.032 0 0 0-123.136-299.264A420.096 420.096 0 0 0 512.192 89.6a426.048 426.048 0 0 0-39.616 2.368l11.84 42.24c9.152-0.64 18.368-1.344 27.712-1.344z" fill="#ffffff" p-id="3265"></path></svg>