<?xml version="1.0" standalone="no"?><!DOCTYPE svg PUBLIC "-//W3C//DTD SVG 1.1//EN" "http://www.w3.org/Graphics/SVG/1.1/DTD/svg11.dtd"><svg t="1615116883445" class="icon" viewBox="0 0 1024 1024" version="1.1" xmlns="http://www.w3.org/2000/svg" p-id="3743" xmlns:xlink="http://www.w3.org/1999/xlink" width="200" height="200"><defs><style type="text/css"></style></defs><path d="M365.259 232.872c-41.47 0-76.561-35.09-76.561-73.37 0-41.47 35.09-73.371 79.75-73.371h28.71v-3.19C409.92 35.09 457.77 0 508.81 0c54.23 0 105.271 35.09 114.841 82.94v3.19h28.71c44.66 0 82.941 31.901 82.941 73.372s-38.28 73.37-82.94 73.37H365.258z m0-89.32c-12.76 0-25.52 9.57-25.52 19.14s12.76 19.14 25.52 19.14H652.36c9.57 0 19.14-3.19 22.33-9.57 3.19-3.19 3.19-6.38 0-9.57 0-9.57-12.76-15.95-25.52-15.95h-57.42c-6.38 0-12.76-3.19-22.33-9.57 0-3.19-6.38-15.95-3.19-22.33v-9.571c0-25.52-25.52-44.66-57.421-44.66-28.71 0-57.42 22.33-57.42 44.66v6.38c0 12.76 0 19.14-6.38 25.52-3.19 6.38-12.76 9.57-22.33 9.57h-57.421z m-70.181 296.672c-19.14 0-35.09-15.95-35.09-35.09s15.95-35.09 35.09-35.09h449.794c19.14 0 35.09 15.95 35.09 35.09s-15.95 35.09-35.09 35.09H295.078z m0 220.112c-19.14 0-35.09-15.95-35.09-35.09 0-19.14 15.95-35.09 35.09-35.09H626.84c19.14 0 35.09 15.95 35.09 35.09 0 19.14-15.95 35.09-35.09 35.09H295.078z" p-id="3744" fill="#ffffff"></path><path d="M180.237 1024c-70.18 0-130.792-60.61-130.792-137.171V267.963c0-70.181 51.041-127.602 114.842-133.982h35.09c22.33 0 38.28 15.95 38.28 38.28s-19.14 41.471-41.47 41.471h-15.95c-28.71-6.38-51.04 19.14-51.04 51.04V886.83c0 31.9 22.33 57.42 51.04 57.42h663.526c28.71 0 51.04-25.52 51.04-57.42V267.963c0-31.9-22.33-57.42-51.04-57.42h-19.14c-22.33 0-41.47-19.141-41.47-41.471s19.14-41.47 41.47-41.47h19.14c73.371 0 130.792 60.61 130.792 137.17V883.64c0 76.56-57.421 137.171-130.792 137.171H180.237z" p-id="3745" fill="#ffffff"></path></svg>