<?xml version="1.0" standalone="no"?><!DOCTYPE svg PUBLIC "-//W3C//DTD SVG 1.1//EN" "http://www.w3.org/Graphics/SVG/1.1/DTD/svg11.dtd"><svg t="1615113360668" class="icon" viewBox="0 0 1024 1024" version="1.1" xmlns="http://www.w3.org/2000/svg" p-id="1701" xmlns:xlink="http://www.w3.org/1999/xlink" width="200" height="200"><defs><style type="text/css"></style></defs><path d="M917.333333 298.666667v21.333333a21.333333 21.333333 0 0 1-21.333333 21.333333H320a21.333333 21.333333 0 0 1-21.333333-21.333333v-21.333333a21.333333 21.333333 0 0 1 21.333333-21.333334h576a21.333333 21.333333 0 0 1 21.333333 21.333334zM181.333333 362.666667a53.333333 53.333333 0 1 0 0-106.666667 53.333333 53.333333 0 0 0 0 106.666667z m0 213.333333a53.333333 53.333333 0 1 0 0-106.666667 53.333333 53.333333 0 0 0 0 106.666667z m0 106.666667a53.333333 53.333333 0 1 1 0 106.666666 53.333333 53.333333 0 0 1 0-106.666666zM896 704a21.333333 21.333333 0 0 1 21.333333 21.333333v21.333334a21.333333 21.333333 0 0 1-21.333333 21.333333H320a21.333333 21.333333 0 0 1-21.333333-21.333333v-21.333334a21.333333 21.333333 0 0 1 21.333333-21.333333h576z m0-213.333333a21.333333 21.333333 0 0 1 21.333333 21.333333v21.333333a21.333333 21.333333 0 0 1-21.333333 21.333334H320a21.333333 21.333333 0 0 1-21.333333-21.333334v-21.333333a21.333333 21.333333 0 0 1 21.333333-21.333333h576z" fill="#ffffff" p-id="1702"></path></svg>