<?xml version="1.0" standalone="no"?><!DOCTYPE svg PUBLIC "-//W3C//DTD SVG 1.1//EN" "http://www.w3.org/Graphics/SVG/1.1/DTD/svg11.dtd"><svg t="1615116857570" class="icon" viewBox="0 0 1024 1024" version="1.1" xmlns="http://www.w3.org/2000/svg" p-id="2929" xmlns:xlink="http://www.w3.org/1999/xlink" width="200" height="200"><defs><style type="text/css"></style></defs><path d="M709.632 219.904a9.408 9.408 0 0 0-9.344-9.408H251.136a9.408 9.408 0 0 0-9.344 9.408v56.128c0 5.12 4.224 9.344 9.344 9.344h449.152c5.12 0 9.344-4.224 9.344-9.344v-56.128z m-9.344 159.04H251.136a9.408 9.408 0 0 0-9.344 9.344v56.128c0 5.12 4.224 9.408 9.344 9.408h449.152c5.12 0 9.344-4.224 9.344-9.408v-56.128a9.408 9.408 0 0 0-9.344-9.344zM466.368 547.392H251.136a9.408 9.408 0 0 0-9.344 9.344v56.128c0 5.12 4.224 9.344 9.344 9.344h215.232c5.12 0 9.344-4.224 9.344-9.344v-56.128a9.408 9.408 0 0 0-9.344-9.344z" p-id="2930" fill="#ffffff"></path><path d="M410.24 907.584H148.16V84.224H803.2v402.304c0 5.12 4.16 9.408 9.344 9.408h65.472c5.12 0 9.344-4.224 9.344-9.408V37.44A37.376 37.376 0 0 0 849.984 0H101.44A37.376 37.376 0 0 0 64 37.44v916.928c0 20.736 16.704 37.44 37.44 37.44h308.736c5.12 0 9.408-4.224 9.408-9.344v-65.536a9.408 9.408 0 0 0-9.408-9.344z" p-id="2931" fill="#ffffff"></path><path d="M827.52 820.608a168.448 168.448 0 1 0-226.432 0 229.824 229.824 0 0 0-116.032 189.568 9.408 9.408 0 0 0 9.344 9.728h56.32c4.864 0 8.96-3.84 9.28-8.96a154.688 154.688 0 0 1 154.24-145.472 154.688 154.688 0 0 1 154.304 145.536 9.344 9.344 0 0 0 9.344 8.896h56.32c5.376 0 9.6-4.48 9.344-9.728a229.44 229.44 0 0 0-116.032-189.568z m-113.28-218.24a93.568 93.568 0 1 1 0.128 187.072 93.568 93.568 0 0 1-0.064-187.072z" p-id="2932" fill="#ffffff"></path></svg>